#!OML:ASF H:\ManfredETheater\Project 1\Capture day 1\Session 1\subject.ASF
:FULLY-SPECIFIED
:DEGREES
172
root 1.09503 15.2804 -17.6473 -168.306 -13.288 175.803
lowerback 18.6964 -2.29899 -4.45807
upperback -0.884775 -3.99667 1.20395
thorax -11.1069 -1.61047 4.97836
lowerneck -18.5824 -2.81301 -2.95854
upperneck 1.88137 -3.74976 3.78667
head 3.62003 -1.84397 1.32401
rclavicle -6.36111e-014 9.14409e-015
rhumerus -54.8778 4.93854 -79.4
rradius 102.967
rwrist -0.68576
rhand -27.945 8.50653
rfingers 7.12502
rthumb -1.33284 -21.469
lclavicle -6.36111e-014 9.14409e-015
lhumerus 1.52554 -7.95323 86.7813
lradius 122.373
lwrist 6.35452
lhand -33.5097 -10.9527
lfingers 7.12502
lthumb -6.70626 18.9211
rfemur -73.8192 -11.2093 18.6898
rtibia 72.3149
rfoot 1.54734 -27.3792
rtoes 60.888
lfemur -9.05968 -3.12004 -19.8376
ltibia 60.2705
lfoot -37.8324 -5.79164
ltoes -22.2259
173
root 1.08411 15.3169 -17.9907 -167.464 -13.563 175.651
lowerback 18.7536 -2.50723 -4.31079
upperback -1.01483 -4.23161 1.27441
thorax -11.2648 -1.71508 5.04543
lowerneck -18.5163 -2.66627 -3.04461
upperneck 1.37681 -3.55166 3.64471
head 3.44528 -1.77381 1.31406
rclavicle -3.60794e-014 7.95139e-015
rhumerus -58.0417 5.43201 -79.5028
rradius 104.477
rwrist -1.28749
rhand -27.7983 8.95442
rfingers 7.12502
rthumb -1.19113 -21.022
lclavicle -3.60794e-014 7.95139e-015
lhumerus 1.48059 -8.94071 85.9443
lradius 125.404
lwrist 4.50912
lhand -34.2247 -11.5292
lfingers 7.12502
lthumb -7.39642 18.3215
rfemur -74.3445 -11.1979 18.7351
rtibia 70.234
rfoot 1.50603 -27.0974
rtoes 61.1256
lfemur -7.84146 -3.40119 -19.6347
ltibia 58.1021
lfoot -36.7497 -6.3491
ltoes -22.9974
174
root 1.07127 15.3559 -18.3428 -166.672 -13.7716 175.498
lowerback 18.7831 -2.72379 -4.13812
upperback -1.13011 -4.47109 1.34304
thorax -11.3924 -1.8255 5.09541
lowerneck -18.4094 -2.49256 -3.11286
upperneck 0.907556 -3.3223 3.49323
head 3.27444 -1.68653 1.30076
rclavicle 4.96962e-014 7.55382e-015
rhumerus -61.1397 5.94033 -79.7588
rradius 105.783
rwrist -1.7342
rhand -27.6924 9.39755
rfingers 7.12502
rthumb -1.08884 -20.5794
lclavicle 4.96962e-014 7.55382e-015
lhumerus 1.15258 -10.0695 84.9073
lradius 128.333
lwrist 2.47207
lhand -34.965 -12.1963
lfingers 7.12502
lthumb -8.11101 17.628
rfemur -74.6849 -11.1719 18.7989
rtibia 68.292
rfoot 1.49316 -26.7896
rtoes 61.4132
lfemur -6.54037 -3.65159 -19.4457
ltibia 55.8514
lfoot -35.3729 -7.02516
ltoes -23.7813
175
root 1.05616 15.3966 -18.7043 -165.931 -13.8938 175.328
lowerback 18.7659 -2.93271 -3.96574
upperback -1.22337 -4.70001 1.40167
thorax -11.4712 -1.93452 5.12734
lowerneck -18.0483 -2.30979 -3.22773
upperneck 0.0310339 -3.07493 3.28171
head 3.32725 -1.60106 1.41019
rclavicle -2.40529e-014 9.14409e-015
rhumerus -64.1472 6.3923 -80.1394
rradius 106.867
rwrist -1.97421
rhand -27.614 9.83028
rfingers 7.12502
rthumb -1.01312 -20.1471
lclavicle -2.40529e-014 9.14409e-015
lhumerus 0.534879 -11.3972 83.7215
lradius 131.113
lwrist 0.266323
lhand -35.6549 -12.9729
lfingers 7.12502
lthumb -8.77683 16.8246
rfemur -74.8469 -11.1249 18.8744
rtibia 66.5416
rfoot 1.51751 -26.4342
rtoes 61.7483
lfemur -5.16212 -3.88914 -19.3054
ltibia 53.5401
lfoot -33.6566 -7.81854
ltoes -24.5468
176
root 1.03873 15.4388 -19.0758 -165.236 -13.903 175.126
lowerback 18.6897 -3.11251 -3.8297
upperback -1.28974 -4.89854 1.44385
thorax -11.4882 -2.0316 5.14712
lowerneck -17.8692 -2.12793 -3.3071
upperneck -0.381208 -2.8379 3.15855
head 3.13665 -1.50422 1.40312
rclavicle 5.46658e-015 8.74653e-015
rhumerus -67.0324 6.72663 -80.6096
rradius 107.7
rwrist -2.00935
rhand -27.562 10.2978
rfingers 7.12502
rthumb -0.962866 -19.6798
lclavicle 5.46658e-015 8.74653e-015
lhumerus -0.379053 -12.9901 82.4652
lradius 133.69
lwrist -2.09687
lhand -36.1951 -13.7604
lfingers 7.12502
lthumb -9.29807 16.0145
rfemur -74.8378 -11.0403 18.936
rtibia 65.0283
rfoot 1.54314 -26.0349
rtoes 62.0858
lfemur -3.72124 -4.12491 -19.2529
ltibia 51.2027
lfoot -31.5494 -8.7317
ltoes -25.2238
177
root 1.01919 15.482 -19.4569 -164.571 -13.7881 174.884
lowerback 18.5398 -3.25099 -3.74811
upperback -1.33384 -5.05434 1.46618
thorax -11.44 -2.10991 5.15626
lowerneck -17.6626 -1.95791 -3.40172
upperneck -0.781301 -2.61495 3.04509
head 2.94762 -1.41258 1.40035
rclavicle -2.31584e-014 5.56597e-015
rhumerus -69.7586 6.89496 -81.1411
rradius 108.276
rwrist -1.87678
rhand -27.5482 10.7441
rfingers 7.12502
rthumb -0.949525 -19.2335
lclavicle -2.31584e-014 5.56597e-015
lhumerus -1.59908 -14.921 81.2256
lradius 135.996
lwrist -4.63344
lhand -36.5607 -14.4635
lfingers 7.12502
lthumb -9.65081 15.2954
rfemur -74.6816 -10.909 18.9799
rtibia 63.7937
rfoot 1.56666 -25.6019
rtoes 62.4028
lfemur -2.2676 -4.36862 -19.3093
ltibia 48.8791
lfoot -28.9874 -9.73272
ltoes -25.7749
